<?xml version="1.0" standalone="no"?><!DOCTYPE svg PUBLIC "-//W3C//DTD SVG 1.1//EN" "http://www.w3.org/Graphics/SVG/1.1/DTD/svg11.dtd"><svg t="1620391811379" class="icon" viewBox="0 0 1024 1024" version="1.1" xmlns="http://www.w3.org/2000/svg" p-id="2549" xmlns:xlink="http://www.w3.org/1999/xlink" width="200" height="200"><defs><style type="text/css"></style></defs><path d="M899.244 398.824L536.633 121.288c-13.629-10.433-32.561-10.433-46.192 0L127.83 398.824c-16.666 12.755-19.835 36.606-7.08 53.271 12.756 16.667 36.607 19.835 53.272 7.08l9.148-7.002v353.965c0 28.389 10.862 54.999 30.586 74.928C233.503 901.014 259.891 912 288.058 912h445.964c28.169 0 54.556-10.985 74.303-30.933 19.723-19.923 30.585-46.533 30.585-74.928V448.351l14.143 10.825a37.826 37.826 0 0 0 23.067 7.826c11.425-0.001 22.724-5.133 30.204-14.906 12.756-16.666 9.586-40.516-7.08-53.272zM567.468 839.257H454.619V628.819c0-15.643 5.776-30.091 16.265-40.685 10.466-10.571 24.729-16.394 40.161-16.394 15.431 0 29.692 5.822 40.156 16.394 10.49 10.597 16.267 25.045 16.267 40.685v210.438z m194.518-23.535c0 13.199-10.197 23.54-23.214 23.54h-94.376V628.819c0-37.243-14.093-71.583-39.683-96.694-24.92-24.452-58.186-37.917-93.668-37.917-35.489 0-68.756 13.466-93.672 37.917-25.589 25.109-39.682 59.449-39.682 96.694v210.443h-94.376c-13.015 0-23.211-10.34-23.211-23.54V393.29l253.433-193.973 248.449 190.158v426.247z" p-id="2550" fill="#1296db"></path></svg>